<svg width="11" height="20" viewBox="0 0 11 20" fill="none" xmlns="http://www.w3.org/2000/svg">
<path d="M8.7 19.1L0.275 10.7C0.175 10.6 0.104333 10.4917 0.063 10.375C0.021 10.2583 0 10.1333 0 9.99999C0 9.86666 0.021 9.74166 0.063 9.62499C0.104333 9.50833 0.175 9.39999 0.275 9.29999L8.7 0.874994C8.93333 0.64166 9.225 0.524994 9.575 0.524994C9.925 0.524994 10.225 0.649994 10.475 0.899994C10.725 1.14999 10.85 1.44166 10.85 1.77499C10.85 2.10833 10.725 2.39999 10.475 2.64999L3.125 9.99999L10.475 17.35C10.7083 17.5833 10.825 17.8707 10.825 18.212C10.825 18.554 10.7 18.85 10.45 19.1C10.2 19.35 9.90833 19.475 9.575 19.475C9.24167 19.475 8.95 19.35 8.7 19.1Z" fill="white"/>
</svg>
