<svg width="18" height="19" viewBox="0 0 18 19" fill="none" xmlns="http://www.w3.org/2000/svg">
<path d="M17.193 9.08645L9.43653 1.32994C9.12628 1.01968 8.69536 0.830078 8.22135 0.830078L2.18851 0.830078C1.24049 0.830078 0.464844 1.60573 0.464844 2.55375L0.464844 8.58658C0.464844 9.06059 0.654447 9.49151 0.973326 9.81039L8.72983 17.5669C9.04009 17.8772 9.47101 18.0668 9.94502 18.0668C10.419 18.0668 10.8499 17.8772 11.1602 17.5583L17.193 11.5254C17.5119 11.2152 17.7015 10.7843 17.7015 10.3103C17.7015 9.83624 17.5033 9.39671 17.193 9.08645ZM3.48126 5.13925C2.76594 5.13925 2.18851 4.56182 2.18851 3.8465C2.18851 3.13117 2.76594 2.55375 3.48126 2.55375C4.19658 2.55375 4.77401 3.13117 4.77401 3.8465C4.77401 4.56182 4.19658 5.13925 3.48126 5.13925Z" fill="#4169E1"/>
</svg>
