<svg width="25" height="24" viewBox="0 0 25 24" fill="none" xmlns="http://www.w3.org/2000/svg">
<g clip-path="url(#clip0_688_610)">
<path d="M19.6401 12.9399C19.6801 12.6399 19.7001 12.3299 19.7001 11.9999C19.7001 11.6799 19.6801 11.3599 19.6301 11.0599L21.6601 9.4799C21.8401 9.3399 21.8901 9.0699 21.7801 8.8699L19.8601 5.5499C19.7401 5.3299 19.4901 5.2599 19.2701 5.3299L16.8801 6.2899C16.3801 5.9099 15.8501 5.5899 15.2601 5.3499L14.9001 2.8099C14.8601 2.5699 14.6601 2.3999 14.4201 2.3999H10.5801C10.3401 2.3999 10.1501 2.5699 10.1101 2.8099L9.75011 5.3499C9.16011 5.5899 8.62011 5.9199 8.13011 6.2899L5.74011 5.3299C5.52011 5.2499 5.27011 5.3299 5.15011 5.5499L3.24011 8.8699C3.12011 9.0799 3.16011 9.3399 3.36011 9.4799L5.39011 11.0599C5.34011 11.3599 5.30011 11.6899 5.30011 11.9999C5.30011 12.3099 5.32011 12.6399 5.37011 12.9399L3.34011 14.5199C3.16011 14.6599 3.11011 14.9299 3.22011 15.1299L5.14011 18.4499C5.26011 18.6699 5.51011 18.7399 5.73011 18.6699L8.12011 17.7099C8.62011 18.0899 9.15011 18.4099 9.74011 18.6499L10.1001 21.1899C10.1501 21.4299 10.3401 21.5999 10.5801 21.5999H14.4201C14.6601 21.5999 14.8601 21.4299 14.8901 21.1899L15.2501 18.6499C15.8401 18.4099 16.3801 18.0899 16.8701 17.7099L19.2601 18.6699C19.4801 18.7499 19.7301 18.6699 19.8501 18.4499L21.7701 15.1299C21.8901 14.9099 21.8401 14.6599 21.6501 14.5199L19.6401 12.9399ZM12.5001 15.5999C10.5201 15.5999 8.90011 13.9799 8.90011 11.9999C8.90011 10.0199 10.5201 8.3999 12.5001 8.3999C14.4801 8.3999 16.1001 10.0199 16.1001 11.9999C16.1001 13.9799 14.4801 15.5999 12.5001 15.5999Z" fill="#4169E1"/>
</g>
<defs>
<clipPath id="clip0_688_610">
<rect width="24" height="24" fill="white" transform="translate(0.5)"/>
</clipPath>
</defs>
</svg>
