<svg width="20" height="20" viewBox="0 0 20 20" fill="none" xmlns="http://www.w3.org/2000/svg">
<path d="M14.2213 0C14.0921 0 13.9839 0.0966094 13.9689 0.224609L13.8515 1.23633C13.3666 1.4043 12.9285 1.6598 12.5484 1.98828L11.6093 1.58398C11.4911 1.53298 11.3545 1.57745 11.2904 1.68945L10.3512 3.31055C10.2861 3.42155 10.3165 3.56363 10.4197 3.64062L11.2297 4.24023C11.1822 4.48651 11.1514 4.73989 11.1514 5C11.1514 5.26011 11.1822 5.51349 11.2297 5.75977L10.4197 6.35938C10.3165 6.43538 10.2871 6.57745 10.3512 6.68945L11.2904 8.31055C11.3545 8.42255 11.4911 8.46897 11.6093 8.41797L12.5484 8.01172C12.9285 8.3402 13.3666 8.5957 13.8515 8.76367L13.9689 9.77539C13.9839 9.90339 14.0921 10 14.2213 10H16.0957C16.2249 10 16.333 9.90339 16.3481 9.77539L16.4655 8.76367C16.9508 8.59553 17.3902 8.34067 17.7705 8.01172L18.7077 8.41406C18.8259 8.46506 18.9625 8.42059 19.0266 8.30859L19.9658 6.6875C20.0309 6.5765 20.0005 6.43442 19.8973 6.35742L19.0892 5.75781C19.1365 5.51218 19.1655 5.25938 19.1655 5C19.1655 4.73989 19.1348 4.48651 19.0873 4.24023L19.8973 3.64062C20.0005 3.56463 20.0299 3.42255 19.9658 3.31055L19.0266 1.68945C18.9625 1.57745 18.8259 1.53103 18.7077 1.58203L17.7685 1.98828C17.3885 1.6598 16.9503 1.4043 16.4655 1.23633L16.3481 0.224609C16.333 0.0966094 16.2249 0 16.0957 0H14.2213ZM15.1585 3.25C16.1262 3.25 16.9116 4.034 16.9116 5C16.9116 5.967 16.1262 6.75 15.1585 6.75C14.1908 6.75 13.4054 5.967 13.4054 5C13.4054 4.034 14.1908 3.25 15.1585 3.25ZM5.20544 7C5.07622 7 4.96807 7.09661 4.95305 7.22461L4.77891 8.71094C3.97023 8.9406 3.24022 9.35237 2.65409 9.92188L1.29232 9.33594C1.17411 9.28494 1.03751 9.32941 0.973399 9.44141L0.0342488 11.0625C-0.0308657 11.1735 -0.000452748 11.3156 0.102729 11.3926L1.3021 12.2793C1.20275 12.6721 1.13384 13.0765 1.13384 13.5C1.13384 13.9235 1.20275 14.3279 1.3021 14.7207L0.102729 15.6094C-0.000452748 15.6854 -0.0298639 15.8275 0.0342488 15.9395L0.973399 17.5605C1.03751 17.6725 1.17411 17.717 1.29232 17.666L2.65409 17.0781C3.24022 17.6476 3.97023 18.0594 4.77891 18.2891L4.95305 19.7754C4.96807 19.9034 5.07622 20 5.20544 20H7.07983C7.20906 20 7.3172 19.9034 7.33223 19.7754L7.50636 18.2891C8.31505 18.0594 9.04505 17.6476 9.63119 17.0781L10.993 17.6641C11.1112 17.7151 11.2478 17.6706 11.3119 17.5586L12.251 15.9375C12.3161 15.8265 12.2857 15.6844 12.1825 15.6074L10.9832 14.7207C11.0825 14.3279 11.1514 13.9235 11.1514 13.5C11.1514 13.0765 11.0825 12.6721 10.9832 12.2793L12.1825 11.3906C12.2857 11.3146 12.3151 11.1725 12.251 11.0605L11.3119 9.43945C11.2478 9.32745 11.1112 9.28298 10.993 9.33398L9.63119 9.92188C9.04505 9.35237 8.31505 8.9406 7.50636 8.71094L7.33223 7.22461C7.3172 7.09661 7.20906 7 7.07983 7H5.20544ZM6.14264 11.5C7.24958 11.5 8.14616 12.395 8.14616 13.5C8.14616 14.605 7.24958 15.5 6.14264 15.5C5.03569 15.5 4.13912 14.605 4.13912 13.5C4.13912 12.395 5.03569 11.5 6.14264 11.5Z" fill="black"/>
</svg>
